# xmcd
#
# Track frame offsets: 
#        150
#        11691
#        25359
#        31292
#        35031
#        48486
#        63167
#        73584
#        85374
#        99096
#        118556
#        128476
#        133935
#        143726
#
# Disc length: 2104 seconds
#
# Revision: 0
# Processed by: cddbd v1.5.2PL0 Copyright (c) Steve Scherf et al.
# Submitted via: ExactAudioCopy v0.95b4
#
DISCID=bc08360e
DTITLE=Leadbelly - Kings Of Blues CD 5
DYEAR=2006
DGENRE=Blues
TTITLE0=Goodnight Irene
TTITLE1=Where Did You Sleep Last Night
TTITLE2=Big Fat Woman
TTITLE3=Bring Me Li'l Water Silvy
TTITLE4=Look. Looky Yonder/ Black Beauty
TTITLE5=In New Orleans
TTITLE6=Blue Tail Fly
TTITLE7=The Boll Weevil Song
TTITLE8=The Bourgeois Blues
TTITLE9=John Hardy
TTITLE10=On A Monday
TTITLE11=Borrow Love And Go
TTITLE12=How Long
TTITLE13=Poor Howard/ Green Corn
EXTD=
EXTT0=
EXTT1=
EXTT2=
EXTT3=
EXTT4=
EXTT5=
EXTT6=
EXTT7=
EXTT8=
EXTT9=
EXTT10=
EXTT11=
EXTT12=
EXTT13=
PLAYORDER=
